# xmcd CD database file generated by OrangeCD 6.0
#
# Track frame offsets:
#	150
#	15124
#	27926
#	41421
#	56256
#	66873
#	79715
#	92663
#	107875
#	124906
#	141560
#	169240
#	185513
#	199769
#	215732
#	228498
#
# Disc length: 3223 seconds
#
# Revision: 0
# Processed by: cddbd v1.5.2PL0 Copyright (c) Steve Scherf et al.
# Submitted via: OrangeCD 6.0
#
DISCID=dd0c9510
DTITLE=Various Artist - 1920's Blues Classics CD, Vol 4
DYEAR=1900
DGENRE=
TTITLE0=Victora Spivey - Dope Head Blues
TTITLE1=Memphis Jug Band - Cocaine Habit Blues
TTITLE2=Charley Patton - Gonna Move to Alabama
TTITLE3=Marshall Owens - Texas Blues
TTITLE4=Ida Cox - 'Fore Day Creep
TTITLE5=Blind Lemon Jefferson - Black Snake Moan
TTITLE6=Beale Street Sheiks - Jazzin' the Blues
TTITLE7=Charlie Spand - Back to the Woods Blues
TTITLE8=Bumble Bee Slim - Chain Gang Bound
TTITLE9=Mississippi Sheiks - Don't Wake It Up
TTITLE10=Ma Rainey - Blues the World Forgot, I and II
TTITLE11=Blind Blake - Lonesome Christmas Blues
TTITLE12=Marshall Owens - Try Me One More Time
TTITLE13=Chocolate Brown - Stingaree Man Blues
TTITLE14=Son House - Mississippi County Farm Blues
TTITLE15=Son House - Clarksdale Moan
EXTD=
EXTT0=
EXTT1=
EXTT2=
EXTT3=
EXTT4=
EXTT5=
EXTT6=
EXTT7=
EXTT8=
EXTT9=
EXTT10=
EXTT11=
EXTT12=
EXTT13=
EXTT14=
EXTT15=
PLAYORDER=
